<?xml version="1.0" standalone="no"?>
<!DOCTYPE svg PUBLIC "-//W3C//DTD SVG 20010904//EN"
 "http://www.w3.org/TR/2001/REC-SVG-20010904/DTD/svg10.dtd">
<svg version="1.0" xmlns="http://www.w3.org/2000/svg"
 width="512.000000pt" height="512.000000pt" viewBox="0 0 512.000000 512.000000"
 preserveAspectRatio="xMidYMid meet">

<g transform="translate(0.000000,512.000000) scale(0.100000,-0.100000)"
fill="#000000" stroke="none">
<path d="M2071 5109 c-130 -25 -265 -130 -326 -252 -19 -38 -35 -75 -35 -82 0
-10 -39 -14 -164 -17 -164 -3 -164 -3 -208 -33 -26 -19 -52 -48 -67 -78 l-23
-47 -457 0 c-453 0 -456 0 -495 -23 -22 -12 -49 -35 -60 -50 l-21 -28 0 -2197
0 -2197 24 -34 c13 -18 42 -42 65 -52 39 -18 108 -19 1858 -19 1257 0 1825 3
1845 11 42 15 92 68 103 109 6 20 10 183 10 376 l0 342 37 7 c53 10 178 61
246 101 187 110 347 290 426 479 78 188 101 404 62 593 -68 326 -263 577 -560
721 -44 21 -109 46 -145 56 l-66 18 0 827 0 827 -23 44 c-16 31 -36 51 -67 67
-44 22 -47 22 -502 22 -369 0 -458 3 -458 13 0 32 -57 99 -104 122 -46 23 -61
25 -195 25 l-146 1 -38 80 c-96 202 -303 310 -516 268z m189 -161 c107 -33
190 -130 220 -256 19 -80 25 -82 232 -82 165 0 180 -2 198 -20 19 -19 20 -33
20 -245 l0 -225 -765 0 -765 0 0 229 c0 226 0 230 22 245 18 13 55 16 196 16
97 0 182 4 192 10 12 6 28 41 45 94 21 70 34 94 77 141 94 103 199 133 328 93z
m-1012 -595 l3 -93 -313 0 c-282 0 -317 -2 -353 -19 -48 -22 -69 -44 -90 -94
-13 -32 -15 -240 -15 -1849 0 -1743 1 -1815 19 -1854 22 -48 60 -80 111 -94
25 -7 558 -9 1577 -8 l1538 3 35 22 c20 12 46 40 58 61 20 37 22 53 22 211 l0
171 65 0 65 0 0 -317 c0 -175 -4 -324 -8 -331 -7 -10 -374 -12 -1803 -10
l-1794 3 -3 2135 c-1 1174 0 2141 3 2148 3 10 97 12 442 10 l438 -3 3 -92z
m2716 81 c3 -9 6 -371 6 -805 l0 -789 -60 0 -59 0 -3 643 c-3 724 0 691 -81
745 l-40 27 -324 3 -323 3 0 95 0 94 439 0 c391 0 440 -2 445 -16z m-2716
-380 c6 -97 -77 -89 903 -92 756 -2 863 0 889 13 30 16 37 32 42 95 l3 35 280
3 c154 1 290 0 303 -3 l22 -5 -2 -642 -3 -641 -60 -17 c-286 -81 -542 -303
-656 -570 -58 -137 -81 -249 -81 -400 -1 -253 68 -448 231 -653 127 -160 318
-278 559 -343 9 -3 12 -45 12 -168 0 -140 -2 -165 -16 -170 -29 -11 -3004 -7
-3025 4 -19 11 -19 41 -19 1800 0 1693 1 1790 18 1799 11 7 122 10 307 8 l290
-2 3 -51z m2827 -1390 c155 -30 295 -104 418 -223 113 -108 185 -229 233 -388
37 -121 40 -317 7 -438 -81 -298 -296 -524 -583 -613 -484 -149 -991 151
-1095 650 -8 38 -15 118 -15 177 0 433 333 804 760 849 99 10 165 6 275 -14z"/>
<path d="M2085 4877 c-190 -76 -234 -296 -87 -429 126 -113 333 -66 400 91 19
45 20 134 3 185 -17 49 -73 112 -125 138 -48 25 -148 33 -191 15z m108 -146
c105 -40 80 -191 -31 -191 -101 0 -134 136 -44 184 32 18 43 19 75 7z"/>
<path d="M1000 3653 c-53 -20 -69 -93 -29 -129 20 -18 55 -19 1196 -19 l1175
0 19 24 c24 30 24 72 0 102 l-19 24 -1164 2 c-639 1 -1170 -1 -1178 -4z"/>
<path d="M1000 2993 c-56 -21 -70 -96 -24 -132 27 -21 28 -21 1183 -21 908 0
1161 3 1181 13 30 15 45 54 36 91 -14 58 30 56 -1218 55 -629 0 -1150 -3
-1158 -6z"/>
<path d="M967 2312 c-27 -30 -22 -87 10 -111 26 -21 27 -21 904 -19 965 3 902
-1 915 63 4 22 0 38 -16 58 l-21 27 -888 0 c-847 0 -889 -1 -904 -18z"/>
<path d="M972 1654 c-33 -23 -31 -86 4 -113 27 -21 32 -21 901 -21 l874 0 24
25 c30 30 32 64 4 99 l-20 26 -883 0 c-782 0 -884 -2 -904 -16z"/>
<path d="M970 990 c-30 -30 -27 -83 6 -109 27 -21 30 -21 1018 -21 763 1 995
3 1007 13 26 20 40 55 33 82 -14 58 40 55 -1046 55 -985 0 -998 0 -1018 -20z"/>
<path d="M4023 1938 l-302 -302 -125 122 c-112 110 -128 122 -160 122 -46 0
-76 -29 -76 -72 0 -27 20 -51 148 -181 144 -145 183 -177 219 -177 10 0 169
151 360 342 311 311 343 346 343 375 0 43 -30 73 -73 73 -29 0 -62 -30 -334
-302z"/>
</g>
</svg>
