<?xml version="1.0" standalone="no"?>
<!DOCTYPE svg PUBLIC "-//W3C//DTD SVG 20010904//EN"
 "http://www.w3.org/TR/2001/REC-SVG-20010904/DTD/svg10.dtd">
<svg version="1.0" xmlns="http://www.w3.org/2000/svg"
 width="512.000000pt" height="512.000000pt" viewBox="0 0 512.000000 512.000000"
 preserveAspectRatio="xMidYMid meet">

<g transform="translate(0.000000,512.000000) scale(0.100000,-0.100000)"
fill="#000000" stroke="none">
<path d="M925 4948 c-27 -5 -86 -27 -131 -48 -203 -98 -330 -320 -311 -544 10
-115 59 -233 130 -316 l30 -34 -84 -13 c-183 -29 -341 -144 -419 -307 -21 -45
-43 -108 -49 -140 -7 -38 -11 -277 -11 -658 l0 -599 25 -24 c24 -25 27 -25
200 -25 l175 0 0 -1015 0 -1016 25 -24 24 -25 271 0 271 0 24 25 25 24 1 478
1 478 82 -484 c75 -443 84 -485 105 -502 21 -18 44 -19 293 -19 l269 0 24 25
c14 13 25 32 25 42 0 18 -227 1563 -234 1596 -4 16 10 17 195 17 l199 0 0
-815 0 -816 25 -24 24 -25 431 0 431 0 24 25 25 24 0 496 0 495 135 0 c132 0
137 1 161 25 l25 25 -3 383 -3 383 -35 71 -35 71 53 7 c29 4 82 21 117 39 l65
33 -5 -31 c-12 -69 -155 -1081 -155 -1098 0 -11 11 -30 25 -43 22 -23 32 -25
120 -25 l95 0 0 -415 0 -416 25 -24 24 -25 431 0 431 0 24 25 25 24 0 416 0
415 95 0 c88 0 98 2 120 25 14 13 25 32 25 43 0 10 -25 191 -55 402 -30 211
-55 390 -55 397 0 10 32 13 150 13 148 0 151 1 176 25 l25 25 -3 513 -3 512
-26 66 c-38 97 -74 154 -140 220 -55 53 -180 129 -215 129 -10 0 -13 60 -16
273 -4 262 -5 274 -29 338 -37 96 -71 149 -140 218 -80 80 -193 136 -308 153
-353 52 -668 -242 -638 -596 10 -115 59 -233 130 -316 l30 -34 -84 -13 c-183
-29 -341 -144 -419 -307 -46 -97 -60 -166 -60 -303 l0 -103 -44 0 c-42 0 -44
1 -50 34 -13 67 -74 171 -134 228 -192 183 -472 183 -664 0 -168 -160 -194
-417 -63 -612 l34 -50 -293 0 -293 0 -7 38 c-3 20 -6 272 -6 560 l0 522 334 0
c333 0 335 0 359 23 14 12 151 167 306 345 243 278 281 326 281 354 0 28 -18
51 -143 175 -128 128 -146 143 -177 143 -31 0 -55 -21 -275 -240 l-241 -240
-303 0 -303 0 16 23 c58 79 97 146 117 200 21 58 23 80 27 374 l4 312 -26 26
-25 25 -288 -1 c-158 -1 -310 -5 -338 -11z m513 -396 l-3 -248 -37 -76 c-45
-91 -103 -147 -196 -191 -61 -29 -76 -32 -162 -32 -86 0 -101 3 -162 32 -93
44 -151 100 -196 191 -35 72 -37 81 -37 171 0 87 3 102 32 163 17 37 50 87 72
111 44 48 135 101 197 116 22 5 142 9 267 10 l229 1 -4 -248z m1189 -334 l62
-63 -242 -277 -242 -278 -358 0 -358 0 -24 -25 -25 -24 0 -578 0 -579 150
-1014 c82 -558 152 -1025 155 -1037 l5 -23 -159 0 c-143 0 -160 2 -165 18 -2
9 -73 431 -157 937 -138 829 -155 922 -176 943 -30 30 -77 29 -108 -3 l-25
-24 0 -936 0 -935 -160 0 -160 0 0 1560 0 1560 -80 0 -80 0 0 -520 0 -520
-120 0 -121 0 3 568 3 568 37 76 c45 91 103 147 196 191 l67 32 787 5 788 5
217 218 c120 119 220 217 223 217 3 0 33 -28 67 -62z m1617 -16 c90 -42 149
-100 194 -190 l37 -76 3 -249 4 -249 -249 4 -248 3 -67 32 c-93 44 -151 100
-196 191 -35 72 -37 81 -37 171 0 87 3 102 32 163 40 85 97 147 172 186 78 42
122 52 213 48 61 -3 92 -11 142 -34z m408 -964 c91 -45 147 -103 191 -196 l32
-67 3 -447 3 -448 -109 0 -109 0 -11 83 c-7 49 -12 224 -12 440 l0 357 -80 0
-80 0 0 -320 0 -320 -400 0 -400 0 0 320 0 320 -80 0 -80 0 0 -216 c0 -257 -5
-279 -75 -349 -69 -69 -94 -75 -329 -75 l-196 0 34 50 c34 49 76 146 76 175 0
12 19 15 99 15 150 0 145 -7 151 227 5 185 6 189 37 255 17 37 50 87 72 111
44 48 135 101 197 116 22 5 247 9 515 8 l475 -2 76 -37z m-1941 -319 c67 -36
98 -68 137 -143 22 -43 26 -64 26 -136 1 -78 -2 -90 -33 -148 -38 -70 -70
-100 -145 -140 -43 -22 -64 -26 -136 -26 -72 0 -93 4 -136 26 -75 40 -107 70
-145 140 -31 58 -34 70 -33 148 0 100 24 160 89 225 100 100 249 121 376 54z
m323 -771 c55 -16 138 -99 154 -154 8 -28 12 -134 12 -338 l0 -296 -80 0 -80
0 0 280 0 280 -80 0 -80 0 0 -800 0 -800 -120 0 -120 0 0 480 0 480 -80 0 -80
0 0 -480 0 -480 -120 0 -120 0 0 815 0 816 -25 24 -24 25 -264 0 -265 0 -5 23
c-3 12 -9 48 -12 80 l-7 57 677 0 c503 0 688 -3 719 -12z m1460 -15 c3 -16 33
-221 66 -458 33 -236 63 -440 65 -452 l5 -23 -550 0 -550 0 5 23 c2 12 32 216
65 452 33 237 63 442 66 458 l6 27 408 0 408 0 6 -27z m-494 -1453 l0 -360
-120 0 -120 0 0 360 0 360 120 0 120 0 0 -360z m400 0 l0 -360 -120 0 -120 0
0 360 0 360 120 0 120 0 0 -360z"/>
<path d="M880 3600 l0 -80 40 0 40 0 0 -400 0 -400 80 0 80 0 0 400 0 400 40
0 40 0 0 80 0 80 -160 0 -160 0 0 -80z"/>
</g>
</svg>
