<?xml version="1.0" standalone="no"?>
<!DOCTYPE svg PUBLIC "-//W3C//DTD SVG 20010904//EN"
 "http://www.w3.org/TR/2001/REC-SVG-20010904/DTD/svg10.dtd">
<svg version="1.0" xmlns="http://www.w3.org/2000/svg"
 width="512.000000pt" height="512.000000pt" viewBox="0 0 512.000000 512.000000"
 preserveAspectRatio="xMidYMid meet">

<g transform="translate(0.000000,512.000000) scale(0.100000,-0.100000)"
fill="#000000" stroke="none">
<path d="M2244 5111 c-95 -23 -195 -107 -237 -199 -33 -71 -29 -209 7 -317 68
-202 217 -367 400 -443 82 -34 194 -36 281 -4 168 62 330 230 399 413 75 202
52 356 -70 468 -117 107 -283 119 -417 30 l-47 -31 -47 31 c-81 54 -181 73
-269 52z m133 -172 c37 -14 81 -56 103 -100 41 -78 120 -73 165 10 79 145 269
127 316 -29 16 -53 -8 -169 -53 -260 -70 -139 -239 -266 -353 -264 -74 1 -156
45 -240 129 -81 81 -128 167 -151 277 -19 91 -11 139 29 185 51 58 119 77 184
52z"/>
<path d="M973 4125 c-121 -33 -213 -108 -268 -217 -19 -39 -35 -79 -35 -89 0
-13 -13 -20 -50 -28 -147 -32 -265 -141 -310 -289 -18 -57 -20 -93 -20 -319
l0 -254 25 -24 c27 -27 79 -33 106 -12 36 27 39 53 39 294 1 256 5 284 54 348
42 54 103 84 191 94 97 11 113 25 125 110 10 72 46 139 93 175 70 53 91 56
467 56 191 0 372 -4 401 -10 78 -14 187 -71 244 -127 62 -61 99 -119 127 -202
22 -63 23 -78 23 -391 l0 -325 -27 -46 c-15 -25 -39 -54 -53 -63 l-25 -16 0
188 c0 213 -12 279 -61 346 -34 47 -96 92 -148 106 -22 6 -237 10 -552 10
-573 0 -570 0 -648 -67 -23 -19 -54 -58 -69 -87 l-27 -51 -3 -370 c-2 -309 0
-382 13 -450 40 -195 152 -364 315 -475 35 -24 60 -48 60 -58 0 -35 -58 -110
-106 -138 -46 -27 -58 -29 -206 -36 -136 -6 -168 -10 -240 -35 -153 -53 -271
-155 -342 -296 -64 -126 -66 -148 -66 -765 l0 -554 29 -29 c43 -42 106 -34
130 18 8 16 11 190 11 566 0 458 2 552 16 602 51 198 227 324 457 325 23 0 37
-5 37 -12 0 -7 -47 -132 -105 -278 -102 -257 -112 -290 -99 -324 3 -9 177
-169 385 -357 l379 -341 0 -88 c0 -102 13 -127 71 -136 29 -5 41 -1 65 19 27
24 29 31 34 119 l5 94 365 328 c346 311 400 364 400 394 0 7 -49 138 -110 292
-60 154 -110 283 -110 285 0 8 82 5 150 -5 137 -22 261 -114 323 -240 l32 -65
5 -580 c5 -533 6 -583 23 -608 31 -48 103 -48 134 0 17 25 18 75 23 608 l5
580 32 65 c53 107 151 193 261 227 26 8 116 18 207 22 151 7 164 9 226 39 80
38 159 119 196 198 l25 55 42 -8 c52 -10 247 -10 307 0 l45 8 29 -61 c36 -76
124 -161 202 -197 52 -24 75 -28 219 -34 169 -8 216 -19 307 -72 83 -49 154
-148 181 -252 14 -50 16 -144 16 -602 0 -376 3 -550 11 -566 24 -52 87 -60
130 -18 l29 29 0 554 c0 614 -2 637 -64 763 -38 76 -120 175 -185 219 l-40 28
-4 912 c-3 1023 2 944 -81 1121 -105 222 -314 395 -556 460 -83 23 -585 34
-702 15 -337 -52 -606 -296 -700 -635 -22 -78 -22 -93 -26 -767 -3 -756 -5
-732 58 -758 37 -15 81 0 99 33 7 15 12 227 14 707 3 765 0 729 77 886 75 153
222 281 391 339 83 29 87 29 356 33 318 5 388 -5 518 -68 147 -72 253 -179
320 -325 66 -142 65 -125 65 -1051 0 -792 -1 -836 -17 -829 -10 4 -81 9 -158
12 -164 6 -194 13 -247 61 -49 45 -77 99 -85 165 -7 61 -38 97 -81 97 -16 0
-55 -9 -88 -21 -75 -26 -213 -36 -296 -20 -211 41 -394 210 -454 421 -13 43
-17 122 -21 350 l-4 295 98 47 c54 26 125 69 157 95 l60 49 70 -53 c191 -144
418 -212 669 -200 l119 5 -4 -276 c-4 -254 -6 -282 -26 -339 -27 -77 -28 -117
-2 -143 51 -51 111 -33 146 45 45 97 53 181 54 530 0 278 -2 324 -16 343 -26
38 -58 44 -127 25 -88 -24 -318 -24 -407 1 -139 38 -270 109 -365 197 -108
101 -125 102 -212 14 -71 -73 -160 -135 -231 -161 -119 -43 -130 -50 -142 -92
-9 -28 -11 -132 -8 -368 5 -322 6 -331 32 -419 51 -169 166 -327 302 -417 52
-34 63 -46 58 -63 -11 -37 -59 -99 -102 -130 -42 -29 -46 -30 -201 -36 -168
-7 -236 -21 -326 -66 -77 -40 -156 -105 -200 -166 -22 -31 -42 -56 -45 -56 -3
0 -21 22 -40 50 -43 61 -127 132 -201 169 -93 47 -160 62 -323 69 -141 6 -155
8 -198 34 -49 29 -79 64 -103 121 l-15 34 44 26 c110 64 246 221 246 283 0 45
-37 83 -81 83 -26 0 -40 -9 -68 -42 -126 -148 -232 -222 -362 -253 -130 -30
-297 -9 -412 52 -80 43 -206 174 -246 257 -55 116 -61 163 -61 539 0 283 2
343 15 367 31 61 26 60 574 60 l499 0 31 -26 c17 -14 35 -42 41 -62 5 -21 10
-148 10 -289 l0 -252 28 -21 c23 -19 36 -21 88 -17 127 10 231 83 291 205 l38
76 0 345 c0 379 -3 402 -60 526 -79 171 -207 287 -390 352 l-80 28 -400 2
c-323 2 -410 0 -452 -12z m352 -2310 c61 0 130 4 155 8 l45 8 24 -56 c24 -55
101 -145 151 -177 l25 -15 -200 -532 c-109 -292 -202 -528 -205 -524 -4 5 -51
126 -104 269 -62 165 -106 270 -120 283 -31 29 -80 28 -111 -4 -42 -41 -43
-34 109 -440 l27 -69 -23 20 c-191 170 -438 397 -438 404 0 13 190 494 198
502 4 4 103 -44 221 -107 133 -72 224 -115 242 -115 35 0 142 52 175 85 30 31
32 87 4 115 -34 34 -65 35 -124 5 l-54 -27 -165 88 -164 89 43 49 c24 27 53
73 66 103 l23 53 45 -7 c25 -5 95 -8 155 -8z m589 -634 c63 -159 75 -197 64
-207 -40 -40 -443 -401 -446 -399 -2 1 59 164 280 753 11 29 21 52 23 50 1 -2
37 -90 79 -197z"/>
<path d="M3355 1170 c-232 -38 -395 -236 -395 -481 0 -154 32 -331 96 -531 39
-124 64 -158 115 -158 41 0 79 39 79 81 0 18 -15 80 -34 138 -55 171 -79 299
-80 441 -1 112 1 130 22 172 96 192 342 229 481 72 44 -50 71 -117 71 -177 0
-50 43 -97 90 -97 40 0 80 39 80 77 0 90 53 194 124 242 69 47 119 58 245 51
49 -2 57 0 78 24 44 51 23 114 -45 137 -60 20 -178 16 -255 -10 -70 -24 -168
-88 -205 -136 l-22 -28 -58 55 c-109 104 -249 150 -387 128z"/>
<path d="M4493 806 c-27 -23 -28 -27 -34 -162 -7 -153 -29 -265 -84 -434 -19
-60 -35 -119 -35 -131 0 -28 53 -79 83 -79 50 0 74 34 116 164 57 175 92 355
93 485 2 125 -4 146 -42 166 -41 21 -65 19 -97 -9z"/>
</g>
</svg>
