<?xml version="1.0" standalone="no"?>
<!DOCTYPE svg PUBLIC "-//W3C//DTD SVG 20010904//EN"
 "http://www.w3.org/TR/2001/REC-SVG-20010904/DTD/svg10.dtd">
<svg version="1.0" xmlns="http://www.w3.org/2000/svg"
 width="512.000000pt" height="512.000000pt" viewBox="0 0 512.000000 512.000000"
 preserveAspectRatio="xMidYMid meet">

<g transform="translate(0.000000,512.000000) scale(0.100000,-0.100000)"
fill="#000000" stroke="none">
<path d="M3103 4657 c-357 -356 -383 -385 -383 -417 0 -32 26 -61 383 -417
356 -357 385 -383 417 -383 32 0 61 26 417 383 357 356 383 385 383 417 0 32
-26 61 -383 417 -356 357 -385 383 -417 383 -32 0 -61 -26 -417 -383z m482
123 l59 -60 -102 -103 c-141 -143 -142 -131 41 -314 183 -183 171 -182 314
-41 l104 102 62 -62 62 -62 -303 -303 -302 -302 -302 302 -303 303 300 300
c165 165 302 300 305 300 3 0 32 -27 65 -60z m240 -240 l60 -60 -63 -63 -62
-62 -62 62 -63 63 60 60 c33 33 62 60 65 60 3 0 32 -27 65 -60z"/>
<path d="M1503 3537 c-353 -352 -383 -385 -383 -416 0 -30 13 -47 102 -137
l102 -104 -198 0 c-196 0 -197 0 -221 -25 -14 -13 -25 -32 -25 -42 0 -10 73
-457 162 -993 146 -879 164 -977 185 -997 l22 -23 696 0 695 0 0 -40 0 -40
-764 0 c-720 0 -765 1 -770 18 -2 9 -91 539 -197 1177 -175 1050 -195 1162
-216 1183 -22 22 -24 22 -318 22 l-295 0 0 -80 0 -80 244 0 c224 0 245 -1 250
-17 2 -10 91 -540 197 -1178 175 -1050 195 -1162 216 -1183 21 -21 30 -22 178
-22 122 0 155 -3 151 -12 -26 -64 -38 -127 -32 -180 11 -110 68 -195 168 -249
58 -31 70 -34 148 -34 78 0 90 3 148 34 70 38 101 70 138 142 42 84 42 182 -2
287 -5 9 74 12 375 12 l381 0 0 -215 c0 -216 0 -216 25 -240 l24 -25 1151 0
1151 0 24 25 25 24 0 511 0 511 -25 24 -24 25 -256 0 -255 0 0 455 0 456 -25
24 -24 25 -226 0 c-197 0 -225 2 -225 16 0 8 23 150 50 314 28 164 50 308 50
320 0 11 -11 32 -25 45 l-24 25 -757 0 -758 0 102 104 c89 90 102 107 102 137
0 31 -30 64 -383 416 -356 357 -385 383 -417 383 -32 0 -61 -26 -417 -383z
m722 -117 l300 -300 -120 -120 -120 -120 -365 0 -365 0 -120 120 -120 120 62
62 62 62 104 -102 c143 -141 131 -142 314 41 183 183 182 171 41 314 l-102
103 59 60 c33 33 62 60 65 60 3 0 140 -135 305 -300z m-480 0 l60 -60 -63 -63
-62 -62 -62 62 -63 63 60 60 c33 33 62 60 65 60 3 0 32 -27 65 -60z m2155
-717 c0 -9 -5 -45 -11 -80 l-11 -63 -1398 0 -1398 0 -11 63 c-6 35 -11 71 -11
80 0 16 101 17 1420 17 1319 0 1420 -1 1420 -17z m-50 -310 c0 -10 -29 -181
-35 -210 l-5 -23 -281 0 -280 0 -24 -25 -25 -24 0 -456 0 -455 -255 0 -256 0
-24 -25 c-23 -22 -25 -32 -25 -120 l0 -95 -645 0 -645 0 -5 23 c-5 23 -235
1403 -235 1412 0 3 617 5 1370 5 754 0 1370 -3 1370 -7z m-250 -568 c0 -239
-15 -225 240 -225 255 0 240 -14 240 225 l0 175 120 0 120 0 0 -400 0 -400
-480 0 -480 0 0 400 0 400 120 0 120 0 0 -175z m320 55 l0 -120 -80 0 -80 0 0
120 0 120 80 0 80 0 0 -120z m-880 -1015 c0 -239 -15 -225 240 -225 255 0 240
-14 240 225 l0 175 120 0 120 0 0 -400 0 -400 -480 0 -480 0 0 400 0 400 120
0 120 0 0 -175z m320 55 l0 -120 -80 0 -80 0 0 120 0 120 80 0 80 0 0 -120z
m800 -55 c0 -239 -15 -225 240 -225 255 0 240 -14 240 225 l0 175 120 0 120 0
0 -400 0 -400 -480 0 -480 0 0 400 0 400 120 0 120 0 0 -175z m320 55 l0 -120
-80 0 -80 0 0 120 0 120 80 0 80 0 0 -120z m-2817 -374 c103 -43 128 -177 48
-257 -65 -65 -157 -65 -222 0 -124 123 13 325 174 257z"/>
</g>
</svg>
