<?xml version="1.0" standalone="no"?>
<!DOCTYPE svg PUBLIC "-//W3C//DTD SVG 20010904//EN"
 "http://www.w3.org/TR/2001/REC-SVG-20010904/DTD/svg10.dtd">
<svg version="1.0" xmlns="http://www.w3.org/2000/svg"
 width="512.000000pt" height="512.000000pt" viewBox="0 0 512.000000 512.000000"
 preserveAspectRatio="xMidYMid meet">

<g transform="translate(0.000000,512.000000) scale(0.100000,-0.100000)"
fill="#000000" stroke="none">
<path d="M2315 5109 c-594 -61 -1139 -317 -1555 -729 -690 -682 -933 -1690
-630 -2611 275 -836 958 -1475 1805 -1688 236 -59 366 -75 625 -75 196 0 257
4 370 23 520 86 937 280 1320 617 463 406 751 941 847 1571 21 138 23 505 5
653 -94 737 -491 1390 -1097 1802 -328 224 -680 361 -1085 423 -126 19 -477
28 -605 14z m525 -373 c539 -73 1029 -336 1375 -738 479 -558 651 -1311 459
-2013 -56 -203 -159 -435 -268 -600 l-59 -90 -28 101 c-131 471 -445 872 -867
1110 l-82 47 25 31 c125 153 201 314 240 507 24 117 17 360 -14 479 -31 116
-115 288 -190 387 -310 410 -865 546 -1336 329 -308 -143 -537 -431 -608 -766
-27 -130 -27 -320 0 -450 35 -165 104 -312 213 -454 l49 -64 -94 -53 c-312
-176 -582 -466 -740 -794 -48 -100 -106 -260 -125 -347 -7 -32 -16 -58 -19
-58 -4 0 -30 37 -58 83 -219 348 -328 703 -340 1112 -12 373 58 698 221 1030
159 323 368 576 652 788 310 232 670 378 1049 426 113 14 429 12 545 -3z
m-101 -732 c103 -26 232 -98 313 -174 402 -375 274 -1020 -242 -1219 -261
-101 -555 -36 -760 169 -142 141 -207 284 -217 475 -21 377 248 708 619 764
75 11 211 4 287 -15z m-585 -1728 c123 -55 217 -71 406 -71 188 0 261 13 403
70 l61 25 54 -20 c188 -70 351 -178 508 -334 260 -259 409 -581 429 -926 l6
-95 -81 -65 c-302 -242 -652 -399 -1040 -465 -149 -26 -439 -31 -597 -11 -418
53 -788 210 -1121 475 l-84 66 5 95 c27 467 304 910 727 1160 51 31 246 119
262 120 4 0 32 -11 62 -24z"/>
</g>
</svg>
